<svg xmlns="http://www.w3.org/2000/svg" enable-background="new 0 0 66 66" viewBox="0 0 66 66"><path fill="#e2e2e2" d="M50.42,5.82v54.36c0,1.7-1.38,3.08-3.08,3.08H7.57c-1.7,0-3.08-1.38-3.08-3.08V5.82c0-1.7,1.38-3.08,3.08-3.08h39.77C49.04,2.74,50.42,4.12,50.42,5.82z"/><path fill="#fff" d="M47.34,2.74H22.99v17.31c0,10.11,8.19,18.3,18.3,18.3h9.13V5.82C50.42,4.12,49.04,2.74,47.34,2.74z" opacity=".5"/><path fill="#fff" d="M50.42,34.75L50.42,34.75l0-28.93c0-1.7-1.38-3.08-3.08-3.08H26.66v0c0,2.03,1.64,3.67,3.67,3.67h16.86v25.1C47.19,33.3,48.64,34.75,50.42,34.75z" opacity=".5"/><path d="M47.34 64.23H7.57c-2.23 0-4.05-1.82-4.05-4.05V13.62c0-.53.43-.97.97-.97s.97.43.97.97v46.56c0 1.16.95 2.11 2.11 2.11h39.77c1.16 0 2.11-.95 2.11-2.11v-4.02c0-.53.43-.97.97-.97.54 0 .97.43.97.97v4.02C51.39 62.41 49.57 64.23 47.34 64.23zM50.42 52.29c-.54 0-.97-.43-.97-.97V5.82c0-1.16-.95-2.11-2.11-2.11H7.57c-1.16 0-2.11.95-2.11 2.11v3.12c0 .53-.43.97-.97.97S3.53 9.48 3.53 8.94V5.82c0-2.23 1.82-4.05 4.05-4.05h39.77c2.23 0 4.05 1.82 4.05 4.05v45.51C51.39 51.86 50.96 52.29 50.42 52.29z"/><rect width="6.91" height="6.91" x="10.63" y="26.27" fill="#7cb5e8"/><path d="M17.54,34.15h-6.91c-0.54,0-0.97-0.43-0.97-0.97v-6.91c0-0.53,0.43-0.97,0.97-0.97h6.91c0.54,0,0.97,0.43,0.97,0.97v6.91C18.51,33.71,18.07,34.15,17.54,34.15z M11.6,32.21h4.97v-4.97H11.6V32.21z"/><rect width="6.91" height="6.91" x="10.63" y="37.94" fill="#7cb5e8"/><path d="M17.54,45.82h-6.91c-0.54,0-0.97-0.43-0.97-0.97v-6.91c0-0.53,0.43-0.97,0.97-0.97h6.91c0.54,0,0.97,0.43,0.97,0.97v6.91C18.51,45.38,18.07,45.82,17.54,45.82z M11.6,43.88h4.97v-4.97H11.6V43.88z"/><rect width="6.91" height="6.91" x="10.63" y="49.61" fill="#7cb5e8"/><path d="M17.54 57.49h-6.91c-.54 0-.97-.43-.97-.97v-6.91c0-.53.43-.97.97-.97h6.91c.54 0 .97.43.97.97v6.91C18.51 57.05 18.07 57.49 17.54 57.49zM11.6 55.55h4.97v-4.97H11.6V55.55zM17.54 34.15h-6.91c-.54 0-.97-.43-.97-.97v-6.91c0-.53.43-.97.97-.97h6.91c.54 0 .97.43.97.97v6.91C18.51 33.71 18.07 34.15 17.54 34.15zM11.6 32.21h4.97v-4.97H11.6V32.21zM17.54 45.82h-6.91c-.54 0-.97-.43-.97-.97v-6.91c0-.53.43-.97.97-.97h6.91c.54 0 .97.43.97.97v6.91C18.51 45.38 18.07 45.82 17.54 45.82zM11.6 43.88h4.97v-4.97H11.6V43.88z"/><path d="M17.54 57.49h-6.91c-.54 0-.97-.43-.97-.97v-6.91c0-.53.43-.97.97-.97h6.91c.54 0 .97.43.97.97v6.91C18.51 57.05 18.07 57.49 17.54 57.49zM11.6 55.55h4.97v-4.97H11.6V55.55zM43.32 20.03H11.6c-.54 0-.97-.43-.97-.97s.43-.97.97-.97h31.72c.54 0 .97.43.97.97S43.85 20.03 43.32 20.03zM38.86 15.28H16.05c-.54 0-.97-.43-.97-.97s.43-.97.97-.97h22.81c.54 0 .97.43.97.97S39.4 15.28 38.86 15.28zM44.29 28.59H22.92c-.54 0-.97-.43-.97-.97 0-.53.43-.97.97-.97h21.37c.54 0 .97.43.97.97C45.25 28.16 44.82 28.59 44.29 28.59zM37.04 32.79H22.92c-.54 0-.97-.43-.97-.97s.43-.97.97-.97h14.13c.54 0 .97.43.97.97S37.58 32.79 37.04 32.79zM44.29 40.26H22.92c-.54 0-.97-.43-.97-.97 0-.53.43-.97.97-.97h21.37c.54 0 .97.43.97.97C45.25 39.83 44.82 40.26 44.29 40.26zM37.04 44.46H22.92c-.54 0-.97-.43-.97-.97 0-.53.43-.97.97-.97h14.13c.54 0 .97.43.97.97C38.01 44.03 37.58 44.46 37.04 44.46zM44.29 51.93H22.92c-.54 0-.97-.43-.97-.97 0-.53.43-.97.97-.97h21.37c.54 0 .97.43.97.97C45.25 51.5 44.82 51.93 44.29 51.93zM37.04 56.13H22.92c-.54 0-.97-.43-.97-.97 0-.53.43-.97.97-.97h14.13c.54 0 .97.43.97.97C38.01 55.7 37.58 56.13 37.04 56.13z"/><rect width="7.22" height="34.62" x="54.29" y="17.04" fill="#ef4a51"/><polygon fill="#ffab03" points="61.5 51.67 54.29 51.67 57.9 61.59 57.9 61.59"/><polygon fill="#4e6575" points="60.16 55.35 55.63 55.35 57.9 61.59 57.9 61.59"/><path d="M57.9,62.56c-0.41,0-0.77-0.25-0.91-0.64l-2.27-6.23c-0.11-0.3-0.06-0.63,0.12-0.89c0.18-0.26,0.48-0.41,0.79-0.41h4.53c0.32,0,0.61,0.15,0.79,0.41c0.18,0.26,0.23,0.59,0.12,0.89l-2.27,6.23C58.67,62.3,58.3,62.56,57.9,62.56z M57.01,56.32l0.89,2.43l0.89-2.43H57.01z"/><path d="M57.9,62.56c-0.41,0-0.77-0.25-0.91-0.64L53.38,52c-0.11-0.3-0.06-0.63,0.12-0.89c0.18-0.26,0.48-0.41,0.79-0.41h7.22c0.32,0,0.61,0.15,0.79,0.41c0.18,0.26,0.23,0.59,0.12,0.89l-3.61,9.92C58.67,62.3,58.3,62.56,57.9,62.56z M55.67,52.63l2.23,6.12l2.23-6.12H55.67z"/><rect width="7.22" height="34.62" x="54.29" y="17.04" fill="none"/><path fill="#fff" d="M61.51,17.04l0,29.87h0c-2.82,0-5.11-2.29-5.11-5.11l0-24.76L61.51,17.04z" opacity=".3"/><path d="M61.5,52.63h-7.22c-0.54,0-0.97-0.43-0.97-0.97V17.04c0-0.53,0.43-0.97,0.97-0.97h7.22c0.54,0,0.97,0.43,0.97,0.97v5.94c0,0.53-0.43,0.97-0.97,0.97c-0.54,0-0.97-0.43-0.97-0.97v-4.97h-5.28V50.7h5.28V28.15c0-0.53,0.43-0.97,0.97-0.97c0.54,0,0.97,0.43,0.97,0.97v23.52C62.47,52.2,62.04,52.63,61.5,52.63z"/><path fill="#8aba55" d="M61.51,11.9l0,5.15l-7.22,0V11.9c0-0.91,0.74-1.65,1.64-1.65l3.93,0C60.77,10.25,61.51,10.99,61.51,11.9z"/><path d="M61.5,18.01h-7.22c-0.54,0-0.97-0.43-0.97-0.97V11.9c0-1.44,1.17-2.61,2.61-2.61h3.93c1.44,0,2.61,1.17,2.61,2.61v5.15C62.47,17.58,62.04,18.01,61.5,18.01z M55.26,16.08h5.28V11.9c0-0.37-0.3-0.68-0.68-0.68h-3.93c-0.37,0-0.67,0.3-0.67,0.68V16.08z"/></svg>